<svg data-v-fde0c5aa="" xmlns="http://www.w3.org/2000/svg" viewBox="0 0 300 300" class="iconLeft"><!----><defs data-v-fde0c5aa=""><!----></defs><rect data-v-fde0c5aa="" fill="transparent" x="0" y="0" width="300px" height="300px" class="logo-background-square"></rect><defs data-v-fde0c5aa=""><!----></defs><g data-v-fde0c5aa="" id="ebaae3c0-ead3-452d-ace3-6315254c40d5" fill="#000000" transform="matrix(3.725066702465102,0,0,3.725066702465102,86.33739875050298,116.10189336281762)"><path d="M5.04 4.19L5.04 4.19Q6.27 4.19 7.02 4.94L7.02 4.94L7.02 4.94Q7.77 5.70 7.77 6.93L7.77 6.93L7.77 6.93Q7.77 8.15 7.01 8.89L7.01 8.89L7.01 8.89Q6.24 9.63 5.00 9.63L5.00 9.63L2.28 9.63L2.28 9.63Q2.21 9.63 2.21 9.70L2.21 9.70L2.21 13.82L2.21 13.82Q2.21 14 2.03 14L2.03 14L1.40 14L1.40 14Q1.22 14 1.22 13.82L1.22 13.82L1.22 4.37L1.22 4.37Q1.22 4.19 1.40 4.19L1.40 4.19L5.04 4.19ZM4.93 8.81L4.93 8.81Q5.75 8.81 6.27 8.29L6.27 8.29L6.27 8.29Q6.79 7.78 6.79 6.94L6.79 6.94L6.79 6.94Q6.79 6.09 6.27 5.57L6.27 5.57L6.27 5.57Q5.75 5.05 4.93 5.05L4.93 5.05L2.28 5.05L2.28 5.05Q2.21 5.05 2.21 5.12L2.21 5.12L2.21 8.74L2.21 8.74Q2.21 8.81 2.28 8.81L2.28 8.81L4.93 8.81ZM12.12 14.11L12.12 14.11Q11.10 14.11 10.38 13.59L10.38 13.59L10.38 13.59Q9.66 13.08 9.38 12.17L9.38 12.17L9.38 12.17Q9.18 11.52 9.18 10.44L9.18 10.44L9.18 10.44Q9.18 9.38 9.37 8.74L9.37 8.74L9.37 8.74Q9.65 7.84 10.37 7.32L10.37 7.32L10.37 7.32Q11.09 6.80 12.12 6.80L12.12 6.80L12.12 6.80Q13.13 6.80 13.85 7.32L13.85 7.32L13.85 7.32Q14.57 7.84 14.84 8.72L14.84 8.72L14.84 8.72Q15.04 9.39 15.04 10.44L15.04 10.44L15.04 10.44Q15.04 11.52 14.84 12.17L14.84 12.17L14.84 12.17Q14.56 13.08 13.84 13.59L13.84 13.59L13.84 13.59Q13.12 14.11 12.12 14.11L12.12 14.11ZM12.12 13.24L12.12 13.24Q12.80 13.24 13.27 12.87L13.27 12.87L13.27 12.87Q13.75 12.50 13.92 11.87L13.92 11.87L13.92 11.87Q14.03 11.42 14.03 10.46L14.03 10.46L14.03 10.46Q14.03 9.45 13.92 9.04L13.92 9.04L13.92 9.04Q13.76 8.41 13.28 8.04L13.28 8.04L13.28 8.04Q12.80 7.67 12.10 7.67L12.10 7.67L12.10 7.67Q11.42 7.67 10.95 8.04L10.95 8.04L10.95 8.04Q10.47 8.41 10.30 9.04L10.30 9.04L10.30 9.04Q10.19 9.45 10.19 10.46L10.19 10.46L10.19 10.46Q10.19 11.47 10.30 11.87L10.30 11.87L10.30 11.87Q10.46 12.50 10.94 12.87L10.94 12.87L10.94 12.87Q11.42 13.24 12.12 13.24L12.12 13.24ZM20.10 14.11L20.10 14.11Q19.08 14.11 18.32 13.79L18.32 13.79L18.32 13.79Q17.56 13.47 17.14 12.87L17.14 12.87L17.14 12.87Q16.73 12.28 16.73 11.49L16.73 11.49L16.73 11.10L16.73 11.10Q16.73 10.92 16.91 10.92L16.91 10.92L17.51 10.92L17.51 10.92Q17.70 10.92 17.70 11.10L17.70 11.10L17.70 11.44L17.70 11.44Q17.70 12.24 18.37 12.74L18.37 12.74L18.37 12.74Q19.04 13.24 20.17 13.24L20.17 13.24L20.17 13.24Q21.25 13.24 21.81 12.79L21.81 12.79L21.81 12.79Q22.37 12.33 22.37 11.58L22.37 11.58L22.37 11.58Q22.37 11.09 22.11 10.74L22.11 10.74L22.11 10.74Q21.85 10.39 21.32 10.08L21.32 10.08L21.32 10.08Q20.79 9.77 19.80 9.37L19.80 9.37L19.80 9.37Q18.75 8.95 18.16 8.63L18.16 8.63L18.16 8.63Q17.58 8.32 17.23 7.82L17.23 7.82L17.23 7.82Q16.87 7.32 16.87 6.57L16.87 6.57L16.87 6.57Q16.87 5.39 17.69 4.74L17.69 4.74L17.69 4.74Q18.51 4.09 19.95 4.09L19.95 4.09L19.95 4.09Q21.49 4.09 22.39 4.82L22.39 4.82L22.39 4.82Q23.28 5.54 23.28 6.75L23.28 6.75L23.28 7.01L23.28 7.01Q23.28 7.20 23.10 7.20L23.10 7.20L22.48 7.20L22.48 7.20Q22.30 7.20 22.30 7.01L22.30 7.01L22.30 6.80L22.30 6.80Q22.30 5.99 21.67 5.47L21.67 5.47L21.67 5.47Q21.04 4.96 19.89 4.96L19.89 4.96L19.89 4.96Q18.90 4.96 18.38 5.36L18.38 5.36L18.38 5.36Q17.85 5.77 17.85 6.54L17.85 6.54L17.85 6.54Q17.85 7.04 18.11 7.37L18.11 7.37L18.11 7.37Q18.37 7.70 18.85 7.95L18.85 7.95L18.85 7.95Q19.33 8.19 20.33 8.58L20.33 8.58L20.33 8.58Q21.35 9.00 21.98 9.37L21.98 9.37L21.98 9.37Q22.61 9.73 22.99 10.25L22.99 10.25L22.99 10.25Q23.37 10.78 23.37 11.54L23.37 11.54L23.37 11.54Q23.37 12.70 22.51 13.40L22.51 13.40L22.51 13.40Q21.64 14.11 20.10 14.11L20.10 14.11ZM28.20 6.82L28.20 6.82Q29.30 6.82 29.97 7.48L29.97 7.48L29.97 7.48Q30.63 8.13 30.63 9.24L30.63 9.24L30.63 13.82L30.63 13.82Q30.63 14 30.45 14L30.45 14L29.82 14L29.82 14Q29.64 14 29.64 13.82L29.64 13.82L29.64 9.44L29.64 9.44Q29.64 8.65 29.18 8.17L29.18 8.17L29.18 8.17Q28.71 7.69 27.97 7.69L27.97 7.69L27.97 7.69Q27.26 7.69 26.79 8.09L26.79 8.09L26.79 8.09Q26.32 8.50 26.25 9.16L26.25 9.16L26.25 13.82L26.25 13.82Q26.25 14 26.07 14L26.07 14L25.44 14L25.44 14Q25.26 14 25.26 13.82L25.26 13.82L25.26 4.38L25.26 4.38Q25.26 4.20 25.44 4.20L25.44 4.20L26.07 4.20L26.07 4.20Q26.25 4.20 26.25 4.38L26.25 4.38L26.25 7.62L26.25 7.62Q26.25 7.66 26.28 7.68L26.28 7.68L26.28 7.68Q26.31 7.70 26.32 7.66L26.32 7.66L26.32 7.66Q26.94 6.82 28.20 6.82L28.20 6.82ZM39.34 4.89L39.34 4.89Q39.34 5.07 39.16 5.07L39.16 5.07L34.06 5.07L34.06 5.07Q33.99 5.07 33.99 5.14L33.99 5.14L33.99 8.57L33.99 8.57Q33.99 8.64 34.06 8.64L34.06 8.64L37.62 8.64L37.62 8.64Q37.80 8.64 37.80 8.82L37.80 8.82L37.80 9.32L37.80 9.32Q37.80 9.51 37.62 9.51L37.62 9.51L34.06 9.51L34.06 9.51Q33.99 9.51 33.99 9.58L33.99 9.58L33.99 13.06L33.99 13.06Q33.99 13.13 34.06 13.13L34.06 13.13L39.16 13.13L39.16 13.13Q39.34 13.13 39.34 13.31L39.34 13.31L39.34 13.82L39.34 13.82Q39.34 14 39.16 14L39.16 14L33.18 14L33.18 14Q33.00 14 33.00 13.82L33.00 13.82L33.00 4.38L33.00 4.38Q33.00 4.20 33.18 4.20L33.18 4.20L39.16 4.20L39.16 4.20Q39.34 4.20 39.34 4.38L39.34 4.38L39.34 4.89ZM45.63 4.38L45.63 4.38Q45.63 4.20 45.81 4.20L45.81 4.20L46.44 4.20L46.44 4.20Q46.62 4.20 46.62 4.38L46.62 4.38L46.62 13.82L46.62 13.82Q46.62 14 46.44 14L46.44 14L45.81 14L45.81 14Q45.63 14 45.63 13.82L45.63 13.82L45.63 13.29L45.63 13.29Q45.63 13.24 45.60 13.24L45.60 13.24L45.60 13.24Q45.57 13.23 45.54 13.26L45.54 13.26L45.54 13.26Q45.23 13.66 44.78 13.89L44.78 13.89L44.78 13.89Q44.32 14.11 43.76 14.11L43.76 14.11L43.76 14.11Q42.78 14.11 42.12 13.61L42.12 13.61L42.12 13.61Q41.45 13.10 41.20 12.24L41.20 12.24L41.20 12.24Q41.01 11.61 41.01 10.46L41.01 10.46L41.01 10.46Q41.01 9.30 41.17 8.72L41.17 8.72L41.17 8.72Q41.43 7.83 42.10 7.31L42.10 7.31L42.10 7.31Q42.77 6.80 43.76 6.80L43.76 6.80L43.76 6.80Q44.31 6.80 44.77 7.02L44.77 7.02L44.77 7.02Q45.23 7.24 45.54 7.64L45.54 7.64L45.54 7.64Q45.57 7.69 45.60 7.67L45.60 7.67L45.60 7.67Q45.63 7.66 45.63 7.62L45.63 7.62L45.63 4.38ZM45.36 12.17L45.36 12.17Q45.49 11.89 45.54 11.51L45.54 11.51L45.54 11.51Q45.60 11.13 45.60 10.46L45.60 10.46L45.60 10.46Q45.60 9.79 45.54 9.40L45.54 9.40L45.54 9.40Q45.49 9.02 45.35 8.72L45.35 8.72L45.35 8.72Q45.18 8.25 44.79 7.96L44.79 7.96L44.79 7.96Q44.41 7.67 43.88 7.67L43.88 7.67L43.88 7.67Q43.32 7.67 42.91 7.95L42.91 7.95L42.91 7.95Q42.50 8.23 42.32 8.69L42.32 8.69L42.32 8.69Q42.15 9.00 42.08 9.39L42.08 9.39L42.08 9.39Q42 9.77 42 10.46L42 10.46L42 10.46Q42 11.12 42.06 11.49L42.06 11.49L42.06 11.49Q42.11 11.86 42.25 12.15L42.25 12.15L42.25 12.15Q42.42 12.66 42.85 12.95L42.85 12.95L42.85 12.95Q43.27 13.24 43.86 13.24L43.86 13.24L43.86 13.24Q44.42 13.24 44.80 12.95L44.80 12.95L44.80 12.95Q45.18 12.66 45.36 12.17L45.36 12.17Z"></path></g><defs data-v-fde0c5aa=""><linearGradient data-v-fde0c5aa="" gradientTransform="rotate(25)" id="177302fe-c224-43ec-bef2-ad3ea406d904" x1="0%" y1="0%" x2="100%" y2="0%"><stop data-v-fde0c5aa="" offset="0%" stop-color="#4E1A70" stop-opacity="1"></stop><stop data-v-fde0c5aa="" offset="100%" stop-color="#2B4CF2" stop-opacity="1"></stop></linearGradient></defs><g data-v-fde0c5aa="" id="56afb4a8-b048-4dff-9fb7-10ae3a378d56" stroke="none" fill="url(#177302fe-c224-43ec-bef2-ad3ea406d904)" transform="matrix(0.5833201849468537,0,0,0.5833201849468537,38.759414622206265,120.65220650500522)"><g clip-rule="evenodd"><path d="M17.084 2.356c.053.006.976.369 1.104.663.177.405.144 1.758.221 2.578 2.323 24.724 4.529 48.322 6.922 73.049.129 1.336.759 4.242.294 4.934-.295.438-3.026 1.212-3.977.662-.648-.374-.864-2.481-1.104-3.534a506.255 506.255 0 0 1-5.081-24.963c-.058-.328-.199-1.771-.368-1.915-.491-.416-1.515 1.252-1.62 1.547-.789 2.209-1.434 5.528-1.988 7.879-2.37 10.048-4.48 19.13-6.848 29.234-.253 1.081-.676 1.955-.294 2.798.636 1.403 4.122 1.039 6.48.957 6.589-.228 11.766-.285 18.188-.589 1.389-.065 3.082-.372 3.535.074.426.419.424 1.796-.074 2.135-.593.404-2.602.147-3.608.147-6.346 0-11.939.147-18.336.147-2.648 0-7.259.749-8.174-1.179-.634-1.335.208-3.981.589-5.596a2913.665 2913.665 0 0 1 7.732-31.959c.73-2.94 1.064-5.448 3.093-6.849.408-.281.97-.464 1.031-.662.105-.345-.398-1.951-.516-2.725-.974-6.403-1.187-14.074-.884-21.502.147-3.585.055-8.748.221-12.519.078-1.762.074-3.911.074-6.407 0-1.647-.241-5.138.368-5.891.375-.461 2.057-.629 3.02-.514zm.81 24.301c-.378.371.085 2.658.147 3.387.639 7.53 1.272 14.987 1.915 22.46.008.093.1 1.463.368 1.546.144.045.526-.207.589-.368.054-.139-.058-.702-.074-.884-.737-8.452-1.434-16.077-2.356-24.447-.082-.746-.1-1.76-.442-1.694-.027.005-.128-.018-.147 0zm3.682 32.548c.139-.307-.477-3.132-.589-3.461-.033-.096-.506.129-.516.146-.101.2.104.718.147 1.031.122.874.213 1.673.368 2.577.101-.091.53-.161.59-.293zM54.787 90.942c4.725-.511 10.577 1.015 12.003 4.565.057.141.492 2.141.147 2.431-.21.176-2.023 0-2.578 0H48.895c-.648 0-2.353.162-2.577 0-.306-.221-.186-2.155.147-2.356.454-.274 3.435 0 4.124 0 .698 0 3.44.314 3.977-.074.35-.254.221-1.398.221-2.209v-2.357z"></path><path d="M53.682 94.624h-6.628c.996-1.813 4.029-3.052 6.407-3.534.485-.099.294 1.218.294 1.768 0 .715.056 1.315-.073 1.766z"></path></g></g><!----></svg>